# xmcd CD database file
#
# Track frame offsets:
#	150
#	20247
#	68669
#	100381
#	140988
#	164248
#
# Disc length: 2716 seconds
#
# Revision: 1
# Processed by: cddbd v1.5.2PL0 Copyright (c) Steve Scherf et al.
# Submitted via: CDex 1.51
#
DISCID=5e0a9a06
DTITLE=Albert King - Blues From The Road - Disc 1
DYEAR=1900
DGENRE=Blues
TTITLE0=Overall junction
TTITLE1=Blues at sunrise
TTITLE2=Kansas city
TTITLE3=As the years go passing by
TTITLE4=That's what the blues is all about
TTITLE5=Matchbox holds my clothes
EXTD=
EXTT0=
EXTT1=
EXTT2=
EXTT3=
EXTT4=
EXTT5=
PLAYORDER=
